# xmcd
# 
# Track frame offsets:
#     150
#     15041
#     33159
#     51488
#     70847
#     93800
#     113564
#     130848
#     148241
#     170857
#     188604
#     204496
#     221097
#     236545
#     254619
# 
# Disc length: 3631
# 
# Revision: 1
# Processed by: cddbd v1.5.2PL0 Copyright (c) Steve Scherf et al.
# Submitted via: fre:ac v1.0.27
# 
DISCID=d20e2d0f
DTITLE=Various Artist - 45 Smooth Street Beats - CD1
DYEAR=2006
DGENRE=RnB
TTITLE0=Mary Mary - Shackles
TTITLE1=Ruff Endz - No More
TTITLE2=SWV - I'm So Into You
TTITLE3=Monica - Don't Take It Personal
TTITLE4=Gnuwine - Pony
TTITLE5=Toni Braxton - He Wasn't Man Enough
TTITLE6=William - Swing My Way
TTITLE7=Malik Yusef - Wouldn't You Like To
TTITLE8=DJ Jazzy Jeff - For Da Love Of Da Game
TTITLE9=Little Brother - The Way You Do It
TTITLE10=The Beatnuts - All Night
TTITLE11=Allure - Hate 2 Luv U
TTITLE12=Goapele - Childhood Drama
TTITLE13=Emmanuel - Pretend
TTITLE14=The Stix - You Should Know
EXTD=
EXTT0=
EXTT1=
EXTT2=
EXTT3=
EXTT4=
EXTT5=
EXTT6=
EXTT7=
EXTT8=
EXTT9=
EXTT10=
EXTT11=
EXTT12=
EXTT13=
EXTT14=
PLAYORDER=
